<svg id="Layer_2" enable-background="new 0 0 24 24" height="512" viewBox="0 0 24 24" width="512" xmlns="http://www.w3.org/2000/svg"><g><path d="m10 24c-1.93 0-3.5-1.57-3.5-3.5 0-.276.224-.5.5-.5s.5.224.5.5c0 1.378 1.121 2.5 2.5 2.5s2.5-1.122 2.5-2.5c0-.276.224-.5.5-.5s.5.224.5.5c0 1.93-1.57 3.5-3.5 3.5z"/></g><g><path d="m18.5 21h-17c-.827 0-1.5-.673-1.5-1.5 0-.439.191-.854.524-1.14.021-.018.044-.034.067-.048 1.532-1.33 2.409-3.247 2.409-5.272v-3.04c0-3.292 2.337-6.173 5.558-6.849.267-.056.534.116.592.387.057.27-.116.535-.387.592-2.76.579-4.763 3.048-4.763 5.87v3.04c0 2.343-1.026 4.559-2.815 6.081-.016.013-.032.026-.05.037-.086.092-.135.214-.135.342 0 .276.225.5.5.5h17c.275 0 .5-.224.5-.5 0-.128-.049-.251-.137-.343-.016-.011-.031-.022-.046-.034-.931-.785-1.659-1.768-2.165-2.922-.11-.253.005-.548.258-.659.25-.107.548.004.658.257.435.991 1.054 1.836 1.842 2.515.023.014.045.029.065.046.334.286.525.701.525 1.14 0 .827-.673 1.5-1.5 1.5z"/></g><g><path d="m17.5 13c-3.584 0-6.5-2.916-6.5-6.5s2.916-6.5 6.5-6.5 6.5 2.916 6.5 6.5-2.916 6.5-6.5 6.5zm0-12c-3.032 0-5.5 2.467-5.5 5.5s2.468 5.5 5.5 5.5 5.5-2.467 5.5-5.5-2.468-5.5-5.5-5.5z"/></g><g><path d="m17.5 9.5c-.276 0-.5-.224-.5-.5v-4.5h-.75c-.276 0-.5-.224-.5-.5s.224-.5.5-.5h1.25c.276 0 .5.224.5.5v5c0 .276-.224.5-.5.5z"/></g></svg>