<svg fill="none" height="512" viewBox="0 0 24 24" width="512" xmlns="http://www.w3.org/2000/svg"><g fill="rgb(0,0,0)"><path clip-rule="evenodd" d="m4.5 14c0-1.933 1.567-3.5 3.5-3.5s3.5 1.567 3.5 3.5-1.567 3.5-3.5 3.5-3.5-1.567-3.5-3.5zm3.5-2.5c-1.38071 0-2.5 1.1193-2.5 2.5s1.11929 2.5 2.5 2.5 2.5-1.1193 2.5-2.5-1.11929-2.5-2.5-2.5z" fill-rule="evenodd"/><path d="m15 11.5c-.2761 0-.5.2239-.5.5s.2239.5.5.5h4c.2761 0 .5-.2239.5-.5s-.2239-.5-.5-.5z"/><path d="m14.5 16c0-.2761.2239-.5.5-.5h4c.2761 0 .5.2239.5.5s-.2239.5-.5.5h-4c-.2761 0-.5-.2239-.5-.5z"/><path clip-rule="evenodd" d="m4.39042 2.68767c-.1725-.21563-.48715-.25059-.70278-.07809-.21563.17251-.25059.48715-.07809.70279l3.35011 4.18763h-2.95966c-1.38071 0-2.5 1.11929-2.5 2.5v8c0 1.3807 1.11929 2.5 2.5 2.5h16c1.3807 0 2.5-1.1193 2.5-2.5v-8c0-1.38071-1.1193-2.5-2.5-2.5h-10.95968l3.35008-4.18763c.1725-.21564.1376-.53028-.0781-.70279-.2156-.1725-.5302-.13754-.7027.07809l-3.60961 4.51196zm3.60525 5.81233.00432.00002.00432-.00002h11.99569c.8284 0 1.5.67157 1.5 1.5v8c0 .8284-.6716 1.5-1.5 1.5h-16c-.82843 0-1.5-.6716-1.5-1.5v-8c0-.82843.67157-1.5 1.5-1.5z" fill-rule="evenodd"/></g></svg>