<svg id="regular" enable-background="new 0 0 24 24" height="512" viewBox="0 0 24 24" width="512" xmlns="http://www.w3.org/2000/svg"><g><path d="m20.25 11c-.414 0-.75-.336-.75-.75v-4.5c0-.689-.561-1.25-1.25-1.25h-7.5c-.414 0-.75-.336-.75-.75s.336-.75.75-.75h7.5c1.517 0 2.75 1.233 2.75 2.75v4.5c0 .414-.336.75-.75.75z"/></g><g><path d="m20.25 11c-.192 0-.384-.073-.53-.22l-1.75-1.75c-.293-.293-.293-.768 0-1.061s.768-.293 1.061 0l1.22 1.22 1.22-1.22c.293-.293.768-.293 1.061 0s.293.768 0 1.061l-1.75 1.75c-.148.147-.34.22-.532.22z"/></g><g><path d="m11.25 21h-5.5c-1.517 0-2.75-1.233-2.75-2.75v-4.5c0-.414.336-.75.75-.75s.75.336.75.75v4.5c0 .689.561 1.25 1.25 1.25h5.5c.414 0 .75.336.75.75s-.336.75-.75.75z"/></g><g><path d="m5.5 16.25c-.192 0-.384-.073-.53-.22l-1.22-1.22-1.22 1.22c-.293.293-.768.293-1.061 0s-.293-.768 0-1.061l1.75-1.75c.293-.293.768-.293 1.061 0l1.75 1.75c.293.293.293.768 0 1.061-.146.147-.338.22-.53.22z"/></g><g><path d="m5 5c-1.378 0-2.5-1.122-2.5-2.5s1.122-2.5 2.5-2.5 2.5 1.122 2.5 2.5-1.122 2.5-2.5 2.5zm0-3.5c-.551 0-1 .449-1 1s.449 1 1 1 1-.449 1-1-.449-1-1-1z"/></g><g><path d="m9.25 10c-.414 0-.75-.336-.75-.75v-.5c0-.689-.561-1.25-1.25-1.25h-4.5c-.689 0-1.25.561-1.25 1.25v.5c0 .414-.336.75-.75.75s-.75-.336-.75-.75v-.5c0-1.517 1.233-2.75 2.75-2.75h4.5c1.517 0 2.75 1.233 2.75 2.75v.5c0 .414-.336.75-.75.75z"/></g><g><path d="m19 19c-1.378 0-2.5-1.122-2.5-2.5s1.122-2.5 2.5-2.5 2.5 1.122 2.5 2.5-1.122 2.5-2.5 2.5zm0-3.5c-.551 0-1 .449-1 1s.449 1 1 1 1-.449 1-1-.449-1-1-1z"/></g><g><path d="m23.25 24c-.414 0-.75-.336-.75-.75v-.5c0-.689-.561-1.25-1.25-1.25h-4.5c-.689 0-1.25.561-1.25 1.25v.5c0 .414-.336.75-.75.75s-.75-.336-.75-.75v-.5c0-1.517 1.233-2.75 2.75-2.75h4.5c1.517 0 2.75 1.233 2.75 2.75v.5c0 .414-.336.75-.75.75z"/></g></svg>