<svg height="512" viewBox="0 0 25 24" width="512" xmlns="http://www.w3.org/2000/svg"><g fill-rule="evenodd"><path d="m12.5 3c-2.2091 0-4 1.79086-4 4s1.7909 4 4 4 4-1.79086 4-4-1.7909-4-4-4zm-5 4c0-2.76142 2.23858-5 5-5 2.7614 0 5 2.23858 5 5s-2.2386 5-5 5c-2.76142 0-5-2.23858-5-5z"/><path d="m20.7837 16.9681c-5.1795-2.7524-11.3879-2.7524-16.5673 0-.13314.0707-.21635.2092-.21635.36v3.6718c0 .2762.22386.5.5.5h16c.2761 0 .5-.2238.5-.5v-3.6718c0-.1508-.0832-.2893-.2163-.36zm-17.0366-.8831c5.4729-2.9083 12.0329-2.9083 17.5058 0 .4597.2443.7471.7224.7471 1.2431v3.6718c0 .8285-.6716 1.5-1.5 1.5h-16c-.82843 0-1.5-.6715-1.5-1.5v-3.6718c0-.5207.28735-.9988.74709-1.2431z"/></g></svg>